# xmcd
#
# Track frame offsets:
#  150
#  9834
#  21677
#  33038
#  44636
#  54868
#  67455
#  78314
#  91550
#  103679
#  116419
#  127063
#
# Disc length: 1838 seconds
#
# Revision: 0
# Processed by: cddbd v1.5.1PL2 Copyright (c) Steve Scherf et al.
# Submitted via: Collectorz.com Music Collector 6.9
#
DISCID=97072c0c
DTITLE=Ferlin Husky - Ferlin Husky Born To Lose
DYEAR=1900
DGENRE=
TTITLE0=01 - Born To Lose
TTITLE1=02 - To My Sorrow
TTITLE2=03 - My Foolish Heart
TTITLE3=04 - Too Soon To Know
TTITLE4=05 - Each Time You Leave
TTITLE5=06 - Worried Mind
TTITLE6=07 - No Letter Today
TTITLE7=08 - King Of A Lonely Castle
TTITLE8=09 - Afraid
TTITLE9=10 - No One Will Ever Know
TTITLE10=11 - Time
TTITLE11=12 - Blues In My Heart
EXTD=
EXTT0=
EXTT1=
EXTT2=
EXTT3=
EXTT4=
EXTT5=
EXTT6=
EXTT7=
EXTT8=
EXTT9=
EXTT10=
EXTT11=
PLAYORDER=
